<?xml version="1.0" standalone="no"?>
<!DOCTYPE svg PUBLIC "-//W3C//DTD SVG 20010904//EN"
 "http://www.w3.org/TR/2001/REC-SVG-20010904/DTD/svg10.dtd">
<svg version="1.0" xmlns="http://www.w3.org/2000/svg"
 width="300.000000pt" height="300.000000pt" viewBox="0 0 300.000000 300.000000"
 preserveAspectRatio="xMidYMid meet">
<metadata>
Created by potrace 1.10, written by Peter Selinger 2001-2011
</metadata>
<g transform="translate(0.000000,300.000000) scale(0.100000,-0.100000)"
fill="#000000" stroke="none">
<path d="M1722 1774 c-12 -8 -26 -13 -31 -9 -5 3 -17 -3 -27 -12 -16 -17 -16
-18 -1 -21 9 -2 17 -8 17 -13 0 -20 -21 -49 -35 -49 -18 0 -21 61 -4 92 11 20
10 21 -37 14 -54 -7 -96 -39 -92 -71 4 -24 43 -33 51 -11 4 9 2 16 -3 16 -6 0
-10 7 -10 15 0 17 30 35 57 35 17 -1 17 -1 0 -14 -12 -10 -15 -21 -11 -43 5
-25 2 -31 -15 -36 -27 -7 -27 -24 0 -32 19 -6 21 -13 16 -48 -6 -44 -33 -75
-51 -57 -14 14 -26 12 -26 -5 0 -18 65 -21 76 -4 3 6 17 8 30 5 26 -7 31 3 13
21 -6 6 -10 32 -8 57 2 25 0 48 -6 50 -6 3 -5 5 1 5 16 1 34 -22 69 -88 34
-63 72 -89 105 -71 22 12 18 30 -6 30 -8 0 -12 -4 -9 -10 3 -5 -1 -10 -9 -10
-9 0 -27 23 -42 53 -14 28 -35 62 -46 73 -19 22 -19 22 19 75 20 30 44 59 53
66 24 19 -10 17 -38 -3z"/>
<path d="M533 1765 c-53 -23 -70 -85 -24 -85 25 0 38 20 20 30 -18 12 2 35 42
49 29 10 44 -4 15 -15 -9 -4 -16 -33 -21 -95 -5 -71 -11 -95 -27 -111 -14 -14
-23 -17 -31 -9 -16 16 -27 14 -27 -5 0 -13 7 -15 38 -10 20 4 46 7 58 8 18 0
20 5 16 57 -2 31 1 72 6 91 7 24 10 28 11 13 1 -11 12 -44 25 -72 l24 -52 23
67 23 66 9 -33 c5 -19 7 -56 5 -84 -4 -49 -4 -50 24 -50 21 0 27 4 22 15 -11
23 -25 161 -22 198 4 29 1 32 -22 32 -20 0 -25 -5 -26 -28 -1 -15 -9 -45 -19
-66 l-16 -39 -25 52 c-18 40 -21 57 -14 72 10 17 7 19 -22 19 -18 -1 -47 -7
-65 -15z"/>
<path d="M800 1720 c-28 -28 -28 -108 1 -144 43 -55 104 -15 104 69 0 80 -58
122 -105 75z m66 -35 c18 -44 18 -76 0 -101 -14 -18 -16 -18 -32 -3 -17 18
-31 97 -21 124 11 26 37 16 53 -20z"/>
<path d="M925 1645 c0 -89 1 -95 21 -95 19 0 20 5 16 60 -2 33 -2 60 2 60 10
0 46 -78 46 -100 0 -15 7 -20 25 -20 l25 0 -25 50 c-29 58 -30 60 -11 60 24 0
30 39 10 61 -12 13 -30 19 -63 19 l-46 0 0 -95z m85 60 c10 -12 10 -19 1 -28
-14 -14 -44 2 -49 27 -4 21 31 22 48 1z"/>
<path d="M1060 1718 c0 -17 3 -19 12 -10 24 24 29 10 26 -73 l-3 -85 28 0 c24
0 26 2 17 19 -13 24 -13 151 -1 151 5 0 17 -7 25 -16 16 -16 21 -8 10 20 -5
12 -20 16 -60 16 -49 0 -54 -2 -54 -22z"/>
<path d="M1310 1726 c-6 -8 -10 -28 -9 -45 2 -18 -3 -37 -14 -49 -42 -46 17
-109 63 -67 18 16 20 16 20 2 0 -11 8 -17 25 -17 25 0 25 0 8 26 -13 21 -14
30 -5 45 16 25 15 39 -3 39 -8 0 -15 -9 -15 -20 0 -25 -9 -26 -25 -3 -11 15
-9 21 11 40 20 19 23 26 14 43 -13 23 -52 27 -70 6z m45 -35 c-3 -12 -10 -21
-15 -21 -14 0 -21 32 -9 47 16 19 33 1 24 -26z m-5 -97 c0 -21 -21 -27 -37
-11 -10 9 -13 23 -8 37 6 20 8 21 26 4 10 -9 19 -23 19 -30z"/>
<path d="M1765 1658 c-24 -98 -24 -100 -7 -105 7 -3 12 5 12 21 0 22 4 26 30
26 25 0 30 -4 30 -25 0 -23 4 -25 48 -25 l47 0 0 95 c0 88 -1 95 -20 95 -19 0
-20 -5 -17 -90 6 -136 -15 -118 -56 50 -5 23 -15 36 -28 38 -16 2 -22 -9 -39
-80z m45 20 c0 -7 3 -23 6 -35 5 -19 2 -23 -16 -23 -18 0 -21 4 -16 23 3 12 6
28 6 35 0 6 5 12 10 12 6 0 10 -6 10 -12z"/>
<path d="M1955 1644 l0 -96 40 5 c53 8 75 36 75 97 0 41 -4 52 -26 69 -15 12
-41 21 -58 21 l-31 0 0 -96z m67 59 c21 -19 25 -95 5 -111 -33 -27 -40 -18
-39 51 0 90 0 91 34 60z"/>
<path d="M2095 1645 l0 -95 53 0 c46 0 52 2 52 20 0 17 -3 19 -19 10 -40 -21
-51 -13 -51 38 0 48 0 48 29 44 16 -2 32 1 35 7 5 7 -5 11 -28 11 -30 0 -36 4
-36 21 0 18 4 21 29 16 20 -4 31 -2 35 8 4 12 -5 15 -47 15 l-52 0 0 -95z"/>
<path d="M2215 1645 c0 -88 1 -95 20 -95 19 0 20 5 15 70 -4 54 -2 70 8 70 16
0 51 -76 52 -112 0 -16 6 -28 13 -28 9 0 12 26 12 95 0 79 -3 95 -15 95 -12 0
-15 -8 -12 -35 l4 -35 -35 35 c-55 55 -62 49 -62 -60z"/>
<path d="M2369 1738 c-1 -1 -2 -19 -4 -38 l-3 -35 19 24 c21 25 21 42 1 49 -7
2 -12 2 -13 0z"/>
<path d="M2425 1717 c-20 -31 -12 -51 32 -78 24 -15 33 -27 31 -42 -4 -29 -23
-32 -48 -7 -18 18 -21 19 -27 4 -14 -36 61 -59 91 -28 28 27 19 60 -24 94 -22
17 -40 36 -40 41 0 19 31 21 51 3 21 -19 21 -19 18 6 -6 37 -61 41 -84 7z"/>
<path d="M735 1439 c-10 -16 4 -24 17 -11 22 22 29 12 12 -20 -27 -54 -34 -60
-52 -46 -13 11 -14 10 -10 -2 9 -29 43 -23 60 12 l17 33 0 -29 c1 -28 1 -29
21 -11 23 20 24 17 10 -19 -5 -14 -5 -28 0 -31 10 -6 42 94 34 107 -3 4 -16
-4 -30 -20 l-26 -27 6 38 c5 35 3 37 -24 37 -16 0 -32 -5 -35 -11z"/>
<path d="M2220 1421 c0 -12 9 -21 25 -25 14 -4 25 -11 25 -17 0 -6 -7 -9 -15
-5 -8 3 -15 1 -15 -4 0 -17 17 -19 36 -6 15 12 16 16 5 30 -7 9 -20 16 -27 16
-17 0 -18 17 -1 23 6 3 2 6 -10 6 -16 1 -23 -5 -23 -18z"/>
<path d="M2163 1412 c-10 -6 -10 -16 -1 -45 9 -29 16 -37 32 -35 10 2 21 9 24
16 2 7 -2 10 -11 6 -8 -3 -18 0 -23 7 -4 7 -2 15 4 17 7 2 12 8 12 13 0 4 -8
5 -17 2 -16 -6 -16 -5 -4 10 14 18 5 22 -16 9z"/>
<path d="M871 1354 c-20 -34 -21 -66 -1 -34 8 12 10 12 16 -3 12 -31 24 -17
24 28 0 25 -4 45 -9 45 -5 0 -19 -16 -30 -36z"/>
<path d="M2076 1382 c-2 -4 -1 -14 5 -22 5 -8 9 -25 9 -37 0 -14 6 -23 15 -23
12 0 13 4 5 19 -16 32 -11 38 11 12 11 -13 22 -21 26 -18 3 4 0 14 -8 23 -8
10 -13 25 -11 36 2 13 -3 18 -22 18 -14 0 -27 -4 -30 -8z"/>
<path d="M946 1346 c-3 -13 -9 -31 -12 -40 -11 -29 11 -16 24 14 8 17 19 30
25 30 8 0 7 -4 -1 -12 -15 -15 -16 -55 0 -64 8 -5 9 0 5 16 -3 12 0 31 6 41
10 16 9 21 -3 29 -24 16 -37 11 -44 -14z"/>
<path d="M2030 1366 c0 -3 5 -17 10 -31 6 -15 7 -31 4 -37 -9 -14 -24 11 -24
40 0 12 -6 22 -14 22 -12 0 -12 -6 -3 -36 12 -40 30 -52 51 -35 11 9 12 19 3
46 -6 19 -14 35 -19 35 -4 0 -8 -2 -8 -4z"/>
<path d="M1024 1308 c5 -54 18 -58 39 -13 19 40 20 45 9 45 -5 0 -13 -12 -20
-27 l-11 -28 3 33 c2 21 -2 32 -11 32 -9 0 -12 -12 -9 -42z"/>
<path d="M1927 1343 c-11 -11 -8 -23 6 -20 7 1 13 -11 15 -30 2 -19 9 -33 17
-33 10 0 11 7 2 36 -9 29 -8 37 4 45 10 6 8 9 -12 9 -14 0 -29 -3 -32 -7z"/>
<path d="M1097 1293 c-4 -24 -2 -40 6 -45 17 -11 37 -10 37 2 0 6 -7 10 -15
10 -21 0 -19 30 3 31 10 0 12 3 5 6 -7 2 -13 9 -13 14 0 4 7 6 15 3 8 -4 15
-1 15 5 0 6 -11 11 -24 11 -19 0 -24 -6 -29 -37z"/>
<path d="M1860 1285 c0 -25 5 -45 10 -45 6 0 9 3 9 8 -3 19 2 23 16 12 24 -20
26 -8 7 33 -24 51 -42 48 -42 -8z"/>
<path d="M1170 1298 c0 -13 -3 -33 -6 -45 -5 -20 -2 -23 20 -23 14 0 26 5 26
10 0 6 -7 10 -15 10 -18 0 -17 -3 -6 38 8 25 7 32 -5 32 -8 0 -14 -10 -14 -22z"/>
<path d="M1553 1310 c-14 -6 -23 -18 -23 -30 0 -12 5 -18 10 -15 6 3 10 13 10
21 0 8 5 14 11 14 8 0 9 -11 5 -31 -3 -17 -6 -40 -6 -51 0 -14 -5 -18 -15 -14
-8 3 -15 1 -15 -4 0 -11 11 -13 34 -4 10 4 16 18 16 38 1 31 1 31 14 8 l12
-23 12 23 c10 22 11 22 11 -9 1 -23 6 -33 17 -33 10 0 14 6 10 18 -3 9 -8 34
-12 55 -7 41 -21 49 -26 15 -4 -30 -22 -25 -26 7 -4 27 -6 28 -39 15z"/>
<path d="M1804 1304 c3 -9 6 -29 6 -45 0 -16 5 -29 10 -29 6 0 10 19 8 45 -2
30 -8 45 -17 45 -8 0 -11 -6 -7 -16z"/>
<path d="M1242 1298 c-17 -17 -15 -53 3 -68 23 -19 47 6 43 44 -3 33 -25 45
-46 24z m33 -18 c9 -14 -4 -52 -16 -45 -12 8 -12 55 0 55 6 0 13 -5 16 -10z"/>
<path d="M1724 1288 c3 -13 6 -33 6 -45 0 -13 4 -23 10 -23 5 0 7 13 4 30 -8
37 13 41 22 5 10 -39 20 -29 16 15 -2 22 -8 40 -13 40 -5 0 -9 -5 -9 -12 0 -9
-3 -9 -12 0 -19 19 -31 14 -24 -10z"/>
<path d="M1318 1265 c-4 -39 12 -61 37 -51 8 3 15 16 15 30 0 13 3 31 6 40 3
9 1 16 -5 16 -6 0 -11 -16 -11 -35 0 -25 -4 -35 -15 -35 -13 0 -15 7 -9 35 4
21 2 35 -4 35 -5 0 -12 -16 -14 -35z"/>
<path d="M1403 1285 c-3 -9 2 -24 11 -34 20 -22 21 -35 1 -27 -8 3 -15 1 -15
-4 0 -6 9 -10 20 -10 27 0 38 29 17 45 -22 16 -22 25 1 25 14 0 15 2 2 10 -21
14 -30 12 -37 -5z"/>
<path d="M1678 1260 c2 -22 8 -40 13 -40 5 0 9 18 9 40 0 26 -5 40 -13 40 -9
0 -11 -12 -9 -40z"/>
</g>
</svg>
