<?xml version="1.0" standalone="no"?>
<!DOCTYPE svg PUBLIC "-//W3C//DTD SVG 20010904//EN"
 "http://www.w3.org/TR/2001/REC-SVG-20010904/DTD/svg10.dtd">
<svg version="1.0" xmlns="http://www.w3.org/2000/svg"
 width="300.000000pt" height="300.000000pt" viewBox="0 0 300.000000 300.000000"
 preserveAspectRatio="xMidYMid meet">
<metadata>
Created by potrace 1.10, written by Peter Selinger 2001-2011
</metadata>
<g transform="translate(0.000000,300.000000) scale(0.100000,-0.100000)"
fill="#000000" stroke="none">
<path d="M1722 1774 c-12 -8 -26 -13 -31 -9 -5 3 -17 -3 -27 -12 -16 -17 -16
-18 -1 -21 9 -2 17 -9 17 -16 0 -21 -26 -49 -41 -44 -17 6 -14 75 4 97 10 12
5 13 -36 8 -61 -8 -97 -32 -97 -63 0 -31 26 -42 48 -20 10 10 12 16 4 16 -7 0
-12 7 -12 15 0 17 30 35 57 35 17 -1 17 -1 -1 -15 -13 -10 -17 -21 -12 -39 5
-19 1 -28 -14 -36 -25 -13 -26 -27 -1 -35 16 -5 18 -13 14 -48 -6 -45 -30 -74
-47 -57 -14 14 -26 12 -26 -5 0 -18 65 -21 76 -4 3 6 14 9 23 6 14 -3 16 6 16
57 0 34 -4 65 -10 69 -6 5 -4 7 5 5 8 -3 29 -29 47 -59 57 -98 90 -123 129
-95 18 14 18 15 0 22 -11 4 -21 2 -27 -7 -8 -12 -12 -10 -25 6 -13 18 -13 20
0 23 9 2 16 14 16 28 0 20 5 24 30 24 25 0 30 -4 30 -25 0 -23 4 -25 48 -25
l47 0 0 95 c0 88 -1 95 -20 95 -19 0 -20 -5 -16 -91 2 -73 0 -90 -10 -87 -13
4 -20 25 -49 136 -8 29 -16 42 -29 42 -14 0 -21 -17 -35 -77 -25 -104 -31
-116 -46 -78 -6 17 -20 40 -31 51 l-21 22 38 53 c21 30 45 59 53 66 25 19 -9
17 -37 -3z m93 -121 c6 -29 4 -33 -15 -33 -18 0 -21 4 -16 23 3 12 6 31 6 42
0 28 17 6 25 -32z"/>
<path d="M533 1765 c-53 -23 -70 -85 -24 -85 25 0 38 20 20 31 -18 11 13 45
47 52 26 5 32 -7 11 -20 -8 -5 -18 -45 -24 -102 -8 -71 -15 -98 -29 -108 -12
-9 -21 -10 -28 -3 -15 15 -26 12 -26 -6 0 -13 7 -15 38 -10 20 4 46 7 57 8 19
0 20 6 17 73 -2 41 1 81 7 92 10 17 10 17 11 -4 0 -11 10 -43 23 -71 l23 -49
24 66 24 66 9 -55 c4 -30 6 -68 4 -85 -5 -27 -3 -30 24 -30 22 0 28 4 23 15
-12 27 -26 144 -22 188 3 40 2 42 -25 42 -22 0 -28 -4 -23 -15 3 -8 -4 -40
-16 -72 -20 -51 -23 -54 -29 -31 -3 13 -14 37 -24 52 -14 22 -16 32 -7 51 11
24 10 25 -21 25 -17 -1 -46 -7 -64 -15z"/>
<path d="M796 1718 c-28 -40 -17 -137 18 -160 19 -13 45 -9 66 12 15 15 20 33
20 75 0 42 -5 60 -20 75 -27 27 -65 26 -84 -2z m57 -13 c32 -31 29 -135 -3
-135 -19 0 -40 47 -40 91 0 60 13 74 43 44z"/>
<path d="M925 1645 c0 -88 1 -95 20 -95 18 0 20 6 17 62 l-3 63 22 -33 c12
-19 22 -47 23 -63 1 -24 5 -29 27 -29 l26 0 -24 51 -25 51 21 15 c26 18 26 28
1 53 -14 14 -33 20 -62 20 l-43 0 0 -95z m83 48 c4 -25 -16 -31 -36 -11 -20
20 -14 40 11 36 14 -2 23 -11 25 -25z"/>
<path d="M1060 1718 c0 -17 3 -19 12 -10 24 24 29 10 26 -73 -3 -79 -2 -85 17
-85 19 0 20 5 16 85 -1 47 0 85 5 85 4 0 16 -8 27 -17 20 -17 20 -17 14 0 -4
10 -7 23 -7 28 0 5 -25 9 -55 9 -50 0 -55 -2 -55 -22z"/>
<path d="M1306 1725 c-18 -19 -20 -33 -6 -55 6 -10 3 -20 -11 -33 -21 -20 -25
-57 -7 -75 17 -17 48 -15 70 5 17 15 18 15 18 0 0 -12 9 -17 27 -17 l26 0 -22
24 c-22 23 -22 26 -7 48 21 29 20 38 -3 38 -14 0 -18 -5 -14 -20 7 -26 -9 -26
-24 0 -11 16 -10 21 8 30 31 17 22 64 -12 68 -15 2 -34 -4 -43 -13z m54 -19
c0 -8 -7 -19 -15 -26 -12 -10 -16 -9 -21 4 -7 18 13 49 27 40 5 -3 9 -11 9
-18z m-10 -116 c0 -4 -6 -10 -14 -13 -21 -8 -39 18 -31 45 l8 22 18 -23 c11
-13 19 -27 19 -31z"/>
<path d="M1945 1645 c0 -88 1 -95 20 -95 18 0 20 6 17 70 -2 41 0 70 6 70 17
0 42 -49 49 -95 4 -30 11 -45 21 -45 12 0 13 10 8 58 -3 31 -2 74 3 95 8 34 7
37 -13 37 -19 0 -22 -5 -19 -37 4 -37 3 -37 -10 -14 -14 23 -52 50 -72 51 -6
0 -10 -38 -10 -95z"/>
<path d="M2095 1645 l0 -95 53 0 c46 0 52 2 52 20 0 17 -3 19 -19 10 -40 -21
-51 -13 -51 35 0 43 1 45 29 45 17 0 33 5 37 11 5 8 -4 10 -30 7 -32 -4 -36
-2 -36 20 0 20 4 23 32 20 18 -2 33 2 35 10 3 8 -10 12 -49 12 l-53 0 0 -95z"/>
<path d="M2215 1645 c0 -88 1 -95 20 -95 18 0 20 6 17 70 -2 41 0 70 6 70 17
0 42 -49 49 -95 3 -27 11 -45 19 -45 9 0 13 26 16 95 3 90 2 95 -17 95 -18 0
-21 -5 -18 -37 4 -37 3 -37 -10 -14 -14 23 -52 50 -72 51 -6 0 -10 -38 -10
-95z"/>
<path d="M2369 1735 c-1 -3 -2 -18 -3 -35 -1 -29 -1 -29 18 -11 11 11 16 26
13 35 -6 15 -25 22 -28 11z"/>
<path d="M2432 1728 c-17 -17 -15 -55 4 -70 59 -48 67 -59 51 -75 -18 -18 -57
-2 -58 25 0 12 -3 9 -10 -8 -8 -19 -6 -27 7 -37 39 -29 94 -7 94 37 0 21 -10
36 -40 60 -24 19 -37 36 -33 45 7 19 28 19 47 -1 15 -14 16 -13 16 10 0 23 -4
26 -33 26 -18 0 -38 -5 -45 -12z"/>
<path d="M735 1439 c-10 -16 4 -24 17 -11 22 22 29 12 12 -20 -27 -54 -34 -60
-52 -46 -13 11 -14 10 -10 -2 9 -29 43 -23 60 12 l17 33 0 -29 c1 -28 1 -29
21 -11 23 20 24 17 10 -19 -5 -14 -5 -28 0 -31 10 -6 42 94 34 107 -3 4 -16
-4 -30 -20 l-26 -27 6 38 c5 35 3 37 -24 37 -16 0 -32 -5 -35 -11z"/>
<path d="M2220 1421 c0 -12 9 -21 25 -25 14 -4 25 -11 25 -17 0 -6 -7 -9 -15
-5 -8 3 -15 1 -15 -4 0 -17 17 -19 36 -6 15 12 16 16 5 30 -7 9 -20 16 -27 16
-17 0 -18 17 -1 23 6 3 2 6 -10 6 -16 1 -23 -5 -23 -18z"/>
<path d="M2163 1412 c-10 -6 -10 -16 -1 -45 9 -29 16 -37 32 -35 10 2 21 9 24
16 2 7 -2 10 -11 6 -8 -3 -18 0 -23 7 -4 7 -2 15 4 17 7 2 12 8 12 13 0 4 -8
5 -17 2 -16 -6 -16 -5 -4 10 14 18 5 22 -16 9z"/>
<path d="M871 1354 c-20 -34 -21 -66 -1 -34 8 12 10 12 16 -3 12 -31 24 -17
24 28 0 25 -4 45 -9 45 -5 0 -19 -16 -30 -36z"/>
<path d="M2076 1382 c-2 -4 -1 -14 5 -22 5 -8 9 -25 9 -37 0 -14 6 -23 15 -23
12 0 13 4 5 19 -16 32 -11 38 11 12 11 -13 22 -21 26 -18 3 4 0 14 -8 23 -8
10 -13 25 -11 36 2 13 -3 18 -22 18 -14 0 -27 -4 -30 -8z"/>
<path d="M946 1346 c-3 -13 -9 -31 -12 -40 -11 -29 11 -16 24 14 8 17 19 30
25 30 8 0 7 -4 -1 -12 -15 -15 -16 -55 0 -64 8 -5 9 0 5 16 -3 12 0 31 6 41
10 16 9 21 -3 29 -24 16 -37 11 -44 -14z"/>
<path d="M2030 1366 c0 -3 5 -17 10 -31 6 -15 7 -31 4 -37 -9 -14 -24 11 -24
40 0 12 -6 22 -14 22 -12 0 -12 -6 -3 -36 12 -40 30 -52 51 -35 11 9 12 19 3
46 -6 19 -14 35 -19 35 -4 0 -8 -2 -8 -4z"/>
<path d="M1024 1308 c5 -54 18 -58 39 -13 19 40 20 45 9 45 -5 0 -13 -12 -20
-27 l-11 -28 3 33 c2 21 -2 32 -11 32 -9 0 -12 -12 -9 -42z"/>
<path d="M1927 1343 c-11 -11 -8 -23 6 -20 7 1 13 -11 15 -30 2 -19 9 -33 17
-33 10 0 11 7 2 36 -9 29 -8 37 4 45 10 6 8 9 -12 9 -14 0 -29 -3 -32 -7z"/>
<path d="M1097 1293 c-4 -24 -2 -40 6 -45 17 -11 37 -10 37 2 0 6 -7 10 -15
10 -21 0 -19 30 3 31 10 0 12 3 5 6 -7 2 -13 9 -13 14 0 4 7 6 15 3 8 -4 15
-1 15 5 0 6 -11 11 -24 11 -19 0 -24 -6 -29 -37z"/>
<path d="M1860 1285 c0 -25 5 -45 10 -45 6 0 9 3 9 8 -3 19 2 23 16 12 24 -20
26 -8 7 33 -24 51 -42 48 -42 -8z"/>
<path d="M1170 1298 c0 -13 -3 -33 -6 -45 -5 -20 -2 -23 20 -23 14 0 26 5 26
10 0 6 -7 10 -15 10 -18 0 -17 -3 -6 38 8 25 7 32 -5 32 -8 0 -14 -10 -14 -22z"/>
<path d="M1553 1310 c-14 -6 -23 -18 -23 -30 0 -12 5 -18 10 -15 6 3 10 13 10
21 0 8 5 14 11 14 8 0 9 -11 5 -31 -3 -17 -6 -40 -6 -51 0 -14 -5 -18 -15 -14
-8 3 -15 1 -15 -4 0 -11 11 -13 34 -4 10 4 16 18 16 38 1 31 1 31 14 8 l12
-23 12 23 c10 22 11 22 11 -9 1 -23 6 -33 17 -33 10 0 14 6 10 18 -3 9 -8 34
-12 55 -7 41 -21 49 -26 15 -4 -30 -22 -25 -26 7 -4 27 -6 28 -39 15z"/>
<path d="M1804 1304 c3 -9 6 -29 6 -45 0 -16 5 -29 10 -29 6 0 10 19 8 45 -2
30 -8 45 -17 45 -8 0 -11 -6 -7 -16z"/>
<path d="M1242 1298 c-17 -17 -15 -53 3 -68 23 -19 47 6 43 44 -3 33 -25 45
-46 24z m33 -18 c9 -14 -4 -52 -16 -45 -12 8 -12 55 0 55 6 0 13 -5 16 -10z"/>
<path d="M1724 1288 c3 -13 6 -33 6 -45 0 -13 4 -23 10 -23 5 0 7 13 4 30 -8
37 13 41 22 5 10 -39 20 -29 16 15 -2 22 -8 40 -13 40 -5 0 -9 -5 -9 -12 0 -9
-3 -9 -12 0 -19 19 -31 14 -24 -10z"/>
<path d="M1318 1265 c-4 -39 12 -61 37 -51 8 3 15 16 15 30 0 13 3 31 6 40 3
9 1 16 -5 16 -6 0 -11 -16 -11 -35 0 -25 -4 -35 -15 -35 -13 0 -15 7 -9 35 4
21 2 35 -4 35 -5 0 -12 -16 -14 -35z"/>
<path d="M1403 1285 c-3 -9 2 -24 11 -34 20 -22 21 -35 1 -27 -8 3 -15 1 -15
-4 0 -6 9 -10 20 -10 27 0 38 29 17 45 -22 16 -22 25 1 25 14 0 15 2 2 10 -21
14 -30 12 -37 -5z"/>
<path d="M1678 1260 c2 -22 8 -40 13 -40 5 0 9 18 9 40 0 26 -5 40 -13 40 -9
0 -11 -12 -9 -40z"/>
</g>
</svg>
